<svg xmlns="http://www.w3.org/2000/svg" version="1.1" xmlns:xlink="http://www.w3.org/1999/xlink" width="512" height="512" x="0" y="0" viewBox="0 0 64 64" style="enable-background:new 0 0 512 512" xml:space="preserve" class=""><g><path fill="#97b2ff" d="M41.29 24.54c-2.91-.9-5.66-2.26-8.16-4.02a2.857 2.857 0 0 0-4.18 1.02c-2.27 4.35-5.94 13.26-4.46 23.19.05.34.11.68.17 1.01a24.541 24.541 0 0 1-19.35-13C.29 23.48.73 13.38 1.41 8.27a3 3 0 0 1 3.76-2.5c2.64.72 5.36 1.08 8.08 1.08 1.59 0 3.19-.12 4.77-.37l2.81-.43c4.28-.67 8.38-2.22 12.03-4.57a2.995 2.995 0 0 1 4.34 1.24c2 4.25 5.07 12.54 4.09 21.82z" opacity="1" data-original="#97b2ff"></path><path fill="#80a1ff" d="M24.49 44.73c.05.34.11.68.17 1.01a24.541 24.541 0 0 1-19.35-13C.29 23.48.73 13.38 1.41 8.27c.2-1.52 1.5-2.59 2.95-2.6-.65 5.22-.94 15.04 3.95 24.07 4.5 8.29 11.44 11.32 15.91 12.42.05.84.14 1.7.27 2.57z" opacity="1" data-original="#80a1ff"></path><path fill="#f4646f" d="M58.154 51.348c-7.25 12.17-19.773 11.649-19.773 11.649s-11.787-4.262-13.887-18.271C23.007 34.8 26.681 25.892 28.95 21.54a2.858 2.858 0 0 1 4.18-1.019 29.537 29.537 0 0 0 11.28 4.814l2.659.523c4.055.798 8.232.736 12.262-.182a2.858 2.858 0 0 1 3.483 2.526c.451 4.887.477 14.524-4.66 23.146z" opacity="1" data-original="#f4646f"></path><path fill="#ea535e" d="M50.33 59.45C44.28 63.25 38.38 63 38.38 63s-11.79-4.26-13.89-18.27c-1.48-9.93 2.19-18.84 4.46-23.19.7-1.35 2.3-1.88 3.64-1.31-2.27 4.56-5.51 13.07-4.1 22.5C30.59 56.74 42.38 61 42.38 61s3.54.15 7.95-1.55z" opacity="1" data-original="#ea535e"></path><path fill="#f99c21" d="M24.94 32.67c-.35 1.65-.6 3.4-.71 5.23-5 .73-9.7-2.39-11.05-7.15a14.919 14.919 0 0 0 11.76 1.92z" opacity="1" data-original="#f99c21"></path><path fill="#ed9015" d="M24.41 35.99c-.08.62-.14 1.26-.18 1.91-5 .73-9.7-2.39-11.05-7.15.65.42 1.34.79 2.06 1.11C16.95 34.33 20.23 36 24 36c.14 0 .28 0 .41-.01z" opacity="1" data-original="#ed9015"></path><path fill="#ffe9e6" d="M33.063 52.239a7.352 7.352 0 0 1 14.315 2.816c-1.572-2.063-3.882-3.582-6.624-4.121s-5.454-.01-7.69 1.305z" opacity="1" data-original="#ffe9e6"></path><g fill="#f9d2cf"><path d="M37.7 50.77c-1.66.13-3.25.64-4.64 1.47.49-1.5 1.44-2.76 2.65-3.65.55.82 1.22 1.55 1.99 2.18zM47.38 55.05c-.61-.8-1.33-1.52-2.15-2.13.65-.07 1.27-.22 1.87-.42.24.81.34 1.67.28 2.55z" fill="#f9d2cf" opacity="1" data-original="#f9d2cf"></path></g><g fill="#381f32"><path d="M25.059 17.524a1 1 0 0 0 .808-.41 4.429 4.429 0 0 1 5.25-1.489l1.471.599a1 1 0 0 0 .754-1.853l-1.47-.598a6.427 6.427 0 0 0-7.62 2.16 1 1 0 0 0 .807 1.59zM16.564 18.557a1 1 0 1 0 1.18-1.615 6.423 6.423 0 0 0-7.914.249l-1.221 1.016a1 1 0 1 0 1.28 1.537l1.22-1.016a4.428 4.428 0 0 1 5.455-.171z" fill="#381f32" opacity="1" data-original="#381f32" class=""></path><path d="M63.81 28.11a3.862 3.862 0 0 0-4.7-3.41 28.333 28.333 0 0 1-11.849.177l-2.659-.523c-.762-.15-1.51-.338-2.25-.547.745-9.228-2.311-17.398-4.248-21.514A3.974 3.974 0 0 0 34.48 0c-.768 0-1.516.221-2.162.64a29.915 29.915 0 0 1-11.64 4.422l-2.814.43c-4.045.64-8.387.417-12.436-.688a3.997 3.997 0 0 0-5.01 3.334c-.705 5.3-1.122 15.607 4.013 25.08C10.25 43.931 20 46.187 23.84 46.658c2.827 13.013 13.72 17.104 14.203 17.278a.986.986 0 0 0 .298.059c.04.002.151.005.324.005 2.106 0 13.448-.556 20.35-12.142 5.264-8.838 5.264-18.673 4.795-23.749zM6.188 32.264C1.324 23.29 1.728 13.462 2.401 8.402a1.97 1.97 0 0 1 .87-1.398 1.995 1.995 0 0 1 1.636-.27c4.312 1.177 8.956 1.418 13.264.734l2.814-.43A31.902 31.902 0 0 0 33.403 2.32c.994-.645 2.393-.228 2.892.826 1.818 3.863 4.672 11.46 4.1 20.04a28.391 28.391 0 0 1-6.69-3.483 3.865 3.865 0 0 0-3.132-.593 3.862 3.862 0 0 0-2.51 1.968c-1.268 2.433-2.928 6.201-3.957 10.742-.232.049-.459.106-.698.142a13.953 13.953 0 0 1-9.687-2.053 1 1 0 0 0-1.503 1.114c1.35 4.763 5.738 7.981 10.575 7.981.125 0 .252-.009.379-.013a32.96 32.96 0 0 0 .3 5.597C19.61 44 11.283 41.646 6.188 32.264zm17.106 4.703a9.014 9.014 0 0 1-8.014-4.006 15.95 15.95 0 0 0 8.398.981c-.167.98-.294 1.991-.384 3.025zm34 13.869C50.8 61.742 40.09 62.012 38.578 62.001c-1.378-.547-11.212-4.866-13.094-17.424-.627-4.184-.308-8.185.437-11.727l.007-.037c.967-4.58 2.645-8.386 3.91-10.81.252-.484.681-.821 1.209-.95a1.837 1.837 0 0 1 1.51.287 30.363 30.363 0 0 0 11.66 4.976l2.66.523c4.218.83 8.485.768 12.676-.188a1.838 1.838 0 0 1 1.506.307c.44.318.71.793.76 1.336.447 4.834.453 14.19-4.522 22.542z" fill="#381f32" opacity="1" data-original="#381f32" class=""></path><path d="M41.657 46.345c-4.127-.813-8.233 1.587-9.544 5.582a1 1 0 0 0 1.456 1.174 9.988 9.988 0 0 1 6.993-1.187 9.989 9.989 0 0 1 6.021 3.747 1 1 0 0 0 1.793-.535c.3-4.194-2.589-7.969-6.719-8.78zm-.71 3.607a12.04 12.04 0 0 0-5.498.202 6.357 6.357 0 0 1 5.822-1.847 6.357 6.357 0 0 1 4.688 3.915 12 12 0 0 0-5.012-2.27zM33.241 33.943a6.168 6.168 0 0 0 7.585.545 1 1 0 0 0-1.115-1.66 4.17 4.17 0 0 1-5.129-.37l-1.124-1.014a1 1 0 1 0-1.34 1.484zM54.89 35.66l-1.425.513a4.17 4.17 0 0 1-4.886-1.6.999.999 0 1 0-1.66 1.114 6.168 6.168 0 0 0 7.225 2.368l1.424-.514a1 1 0 1 0-.679-1.88z" fill="#381f32" opacity="1" data-original="#381f32" class=""></path></g></g></svg>