<svg xmlns="http://www.w3.org/2000/svg" version="1.1" xmlns:xlink="http://www.w3.org/1999/xlink" width="512" height="512" x="0" y="0" viewBox="0 0 68 68" style="enable-background:new 0 0 512 512" xml:space="preserve" class=""><g><path fill="#fdbbad" d="m10.915 43.71-.774.496a2.238 2.238 0 0 0-.55 3.272l1.648 2.084 1.103-.45 2.038-2.177.515-1.396" opacity="1" data-original="#fdbbad"></path><path fill="#4d7cfe" d="m16.497 51.102 2.351 12.024-15.781 1.198-.085-11.68z" opacity="1" data-original="#4d7cfe"></path><path fill="#234bba" d="m16.497 51.102 1.76-1.241 3.037 11.688-1.721.154-.725 1.423zM18.256 49.861l-13.23 1.316-2.044 1.467 13.515-1.542" opacity="1" data-original="#234bba"></path><path fill="#0e0f16" d="M7.385 53.596a.162.162 0 0 1-.07 0 .155.155 0 0 1-.12-.184c.196-.847 1.962-8.262 3.775-8.029a.155.155 0 0 1 .138.174.16.16 0 0 1-.18.133c-1.147-.14-2.705 4.7-3.422 7.79a.158.158 0 0 1-.12.116z" opacity="1" data-original="#0e0f16" class=""></path><path fill="#0e0f16" d="M6.305 53.592a.167.167 0 0 1-.073 0 .155.155 0 0 1-.117-.188c.211-.849 2.119-8.287 3.976-8.076.087.01.15.087.14.172a.159.159 0 0 1-.178.136c-1.185-.139-2.857 4.736-3.628 7.841a.156.156 0 0 1-.12.115z" opacity="1" data-original="#0e0f16" class=""></path><path fill="#0e0f16" d="M6.305 53.592a.167.167 0 0 1-.073 0 .155.155 0 0 1-.117-.188c.211-.849 2.119-8.287 3.976-8.076.087.01.15.087.14.172a.159.159 0 0 1-.178.136c-1.185-.139-2.857 4.736-3.628 7.841a.156.156 0 0 1-.12.115z" opacity="1" data-original="#0e0f16" class=""></path><path fill="#f73731" d="M10.771 53.184a.178.178 0 0 1-.059.002.157.157 0 0 1-.134-.176c.01-.058.868-5.839-.165-7.151-.106-.135-.224-.207-.36-.223a.156.156 0 0 1-.139-.172.16.16 0 0 1 .177-.136.846.846 0 0 1 .575.343c1.115 1.416.265 7.141.228 7.385a.157.157 0 0 1-.123.128z" opacity="1" data-original="#f73731"></path><path fill="#0e0f16" d="M10.771 53.184a.178.178 0 0 1-.059.002.157.157 0 0 1-.134-.176c.01-.058.868-5.839-.165-7.151-.106-.135-.224-.207-.36-.223a.156.156 0 0 1-.139-.172.16.16 0 0 1 .177-.136.846.846 0 0 1 .575.343c1.115 1.416.265 7.141.228 7.385a.157.157 0 0 1-.123.128z" opacity="1" data-original="#0e0f16" class=""></path><path fill="#0e0f16" d="M11.687 53.225a.166.166 0 0 1-.056.003.157.157 0 0 1-.137-.175c.008-.058.793-5.853-.228-7.15-.101-.127-.211-.197-.337-.213a.155.155 0 0 1-.138-.174.16.16 0 0 1 .18-.133.822.822 0 0 1 .548.333c1.101 1.397.325 7.135.291 7.379a.158.158 0 0 1-.123.13z" opacity="1" data-original="#0e0f16" class=""></path><path fill="#f73731" d="m11.807 52.492.686 12.908-8.868.522.625-12.819z" opacity="1" data-original="#f73731"></path><path fill="#c61f17" d="m11.807 52.492 1.253-.555 2.872 12.701-2.145-.15-1.294.912zM13.06 51.937l-7.917.657-.893.51 7.557-.612z" opacity="1" data-original="#c61f17"></path><path fill="#0e0f16" d="M6.31 53.61a.163.163 0 0 1-.077-.002.155.155 0 0 1-.113-.19c.006-.022.631-2.313 1.372-4.454a.159.159 0 0 1 .201-.097.153.153 0 0 1 .1.196 79.71 79.71 0 0 0-1.365 4.435.158.158 0 0 1-.119.112zM10.191 53.312a.17.17 0 0 1-.054.003.156.156 0 0 1-.14-.172c.333-2.739.482-7.142-.537-7.296a.156.156 0 0 1-.133-.178.162.162 0 0 1 .182-.129c1.654.252.897 6.884.805 7.64a.156.156 0 0 1-.123.132z" opacity="1" data-original="#0e0f16" class=""></path><path fill="#fdbbad" d="m52.453 41.914 1.684 1.087a1.395 1.395 0 0 0 1.97-.484l.451-.795a2.713 2.713 0 0 0-.868-3.606l-1.008-1.396-1.988.738" opacity="1" data-original="#fdbbad"></path><path fill="#1baa75" d="m49.086 58.227 2.416-15.765h10.422l-.975 15.765z" opacity="1" data-original="#1baa75"></path><path fill="#0f875a" d="m60.95 58.227.974-15.765h1.978l1.116 15.765h-1.642z" opacity="1" data-original="#0f875a"></path><path fill="#222333" d="m53.331 44.788-.015-.001a.26.26 0 0 1-.245-.274l.19-2.454c.104-1.865 1.676-3.381 3.505-3.381 1.84 0 3.26 1.522 3.154 3.41l-.19 2.454c-.009.143-.14.269-.274.245a.26.26 0 0 1-.245-.274l.19-2.454c.087-1.564-1.071-2.861-2.635-2.861-1.558 0-2.897 1.296-2.986 2.89l-.19 2.454a.26.26 0 0 1-.259.246z" opacity="1" data-original="#222333"></path><path fill="#fdbbad" d="m57.867 38.58-.034.783a.834.834 0 0 1-.75.79c-.027 0-.055.007-.082.007a.834.834 0 0 1-.75-.492l-.394-.867-1.803-1.123.628-.958 2.603.812c.374.215.596.617.582 1.047z" opacity="1" data-original="#fdbbad"></path><path fill="#222333" d="M29.261 66c2.933-6.48 4.374-13.155 4.418-14.726.77 5.187.92 10.124.235 14.726h9.164c.217-5.942-.039-11.332-1.29-19.085L24.15 44.87c-.983 6.29.248 11.634-5.104 20.982-.027.046-.062.1-.091.148z" opacity="1" data-original="#222333"></path><path fill="#f8c51a" d="m54.682 36.72-2.23 5.194-9.282-2.168a6.062 6.062 0 0 1-.97-.356 3.785 3.785 0 0 1-.283-.145 6.416 6.416 0 0 1-3.427-5.18l-.706-8.847-.428-4.693c3.428 0 6.987 1.898 7.85 5.22.515 1.971.805 6.981.805 6.981z" opacity="1" data-original="#f8c51a"></path><path fill="#f8c51a" d="M37.863 20.527H27.316a4.266 4.266 0 0 0-4.355 4.25l.807 22.354c.012.977 18.03.761 18.02-.216 0 0 .427-19.997.239-22.29-.179-2.18-1.977-4.052-4.164-4.098z" opacity="1" data-original="#f8c51a"></path><path fill="#fdbbad" d="m14.895 47.927-1.654 1.561c-.33.311-.776.464-1.227.42l-1.577-.153a.8.8 0 0 1-.008-1.57l2.06-.42 1.322-1.768z" opacity="1" data-original="#fdbbad"></path><path fill="#f8c51a" d="M27.316 20.527s2.058 5.287.557 7.79c-.214.314-6.524 7.477-6.524 7.477l-6.454 12.133-3.98-4.217s3.4-12.472 4.344-13.546c.785-.891 6.769-9.454 12.057-9.637z" opacity="1" data-original="#f8c51a"></path><path fill="#ef9b13" d="M28.308 24.364c.32 1.283.438 3.072-.3 4.151-.115.131-2.57 3.077-4.728 5.084 1.78-2.549 4.076-5.04 4.332-5.339.264-.332.394-.758.51-1.183.207-.866.206-1.79.186-2.713z" opacity="1" data-original="#ef9b13"></path><path fill="#0e0f16" d="M40.394 9.67c.02.07 2.142 4.563 1.792 6.129-.408 1.83-4.995 4.068-6.739 2.829s-1.16-5.666-1.16-5.666l1.228-2.034z" opacity="1" data-original="#0e0f16" class=""></path><path fill="#fdbbad" d="M30.446 14.328h5.715v6.205h-5.715z" opacity="1" data-original="#fdbbad"></path><path fill="#fdbbad" d="m35.566 22.5.594-1.974h-5.714z" opacity="1" data-original="#fdbbad"></path><path fill="#eca090" d="M36.16 12.835v5.328s-2.526 1.307-5.714.817v-6.145z" opacity="1" data-original="#eca090"></path><path fill="#fdbbad" d="M40.445 10.19v3.44a4.996 4.996 0 0 1-4.998 4.998 5 5 0 0 1-4.998-4.999V10.19a5 5 0 0 1 8.537-3.532c.9.907 1.46 2.153 1.46 3.532z" opacity="1" data-original="#fdbbad"></path><ellipse cx="35.207" cy="11.543" fill="#0e0f16" rx=".466" ry=".618" opacity="1" data-original="#0e0f16" class=""></ellipse><ellipse cx="38.526" cy="11.543" fill="#0e0f16" rx=".466" ry=".618" opacity="1" data-original="#0e0f16" class=""></ellipse><path fill="#ffffff" d="M34.89 14.665c-.001.028-.008.054-.008.081a1.896 1.896 0 1 0 3.792 0c0-.027-.008-.053-.009-.08z" opacity="1" data-original="#ffffff"></path><path fill="#0e0f16" d="M25.314 15.686c.057 3.837 5.132 3.294 5.132 3.294v-7.812c6.995-3.41 7.072-5.527 7.072-5.527.12 3.453 3.808 5.937 4.521 5.063.976-1.196-1.223-6.546-4.999-8.24-2.77-1.252-4.809.428-4.809.428-5.45-1.476-5.988 4.343-5.637 5.897.352 1.56-1.306 5.143-1.28 6.897z" opacity="1" data-original="#0e0f16" class=""></path><path fill="#fdbbad" d="M30.446 11.165a1.67 1.67 0 0 0 0 3.34z" opacity="1" data-original="#fdbbad"></path><path fill="#ef9b13" d="M42.372 28.833V39.39a7.39 7.39 0 0 1-.454-.16V28.834z" opacity="1" data-original="#ef9b13"></path></g></svg>