<svg xmlns="http://www.w3.org/2000/svg" version="1.1" xmlns:xlink="http://www.w3.org/1999/xlink" width="512" height="512" x="0" y="0" viewBox="0 0 68 68" style="enable-background:new 0 0 512 512" xml:space="preserve" class=""><g><path fill="#fdbbad" d="m45.442 41.836 1.62 1.046a1.343 1.343 0 0 0 1.898-.466l.434-.765a2.612 2.612 0 0 0-.836-3.471l-.97-1.344-1.914.71" opacity="1" data-original="#fdbbad"></path><path fill="#1baa75" d="m42.2 57.54 2.327-15.176h10.032l-.938 15.176z" opacity="1" data-original="#1baa75"></path><path fill="#0f875a" d="m53.621 57.54.938-15.176h1.905l1.074 15.176h-1.58z" opacity="1" data-original="#0f875a"></path><path fill="#222333" d="M46.287 44.602h-.014a.25.25 0 0 1-.236-.264l.182-2.362c.1-1.795 1.614-3.256 3.375-3.256 1.772 0 3.137 1.466 3.036 3.283l-.183 2.363c-.008.138-.134.259-.264.236a.25.25 0 0 1-.236-.264l.183-2.362c.085-1.506-1.03-2.755-2.536-2.755-1.5 0-2.789 1.248-2.875 2.782l-.182 2.363a.25.25 0 0 1-.25.236zM37.854 66h-9.259a81.13 81.13 0 0 0-1.849-23.476c3.638.72 7.263 1.442 10.887 2.17A80.765 80.765 0 0 1 37.853 66z" opacity="1" data-original="#222333"></path><path fill="#0e0f16" d="M33.028 44.3c-.107 7.075-2.377 14.645-4.373 21.7h-.06a81.13 81.13 0 0 0-1.375-21.247c2.036-.187 4.052-.367 5.808-.454z" opacity="1" data-original="#0e0f16"></path><path fill="#222333" d="M26.472 65.999h-9.038a80.677 80.677 0 0 0 .882-20.717c3.771-.197 10.227-.733 13.997-.93-.108 7.077-3.845 14.591-5.841 21.647z" opacity="1" data-original="#222333"></path><path fill="#fdbbad" d="m50.654 38.626-.033.754a.802.802 0 0 1-.721.76c-.027 0-.054.008-.08.008a.803.803 0 0 1-.721-.474l-.38-.835-1.736-1.081 1.602-.995 1.508.855c.36.207.574.594.561 1.008z" opacity="1" data-original="#fdbbad"></path><path fill="#4d7cfe" d="m48.588 36.766-3.146 5.07-6.7-3.738-.361-.147-.36-.146-3.632-1.469a2.801 2.801 0 0 1-1.735-2.33l-.955-10.159 1.616-4.746 2.763.067a4.145 4.145 0 0 1 4.025 3.464l1.489 8.831z" opacity="1" data-original="#4d7cfe"></path><path fill="#4d7cfe" d="m38.23 47.973-.21-24.049c0-2.3.008-4.479-4.22-4.799a15.7 15.7 0 0 0-1.096-.03c-.381-.008-11.135 0-11.135 0a3.696 3.696 0 0 0-3.701 3.702l.248 25.72c.122 1.406 20.237.863 20.114-.544z" opacity="1" data-original="#4d7cfe"></path><path fill="#234bba" d="M38.38 26.817v11.134l-.36-.146V26.817z" opacity="1" data-original="#234bba"></path><path fill="#fdbbad" d="m31.188 19.1-.348 3.82-4.858-3.828zM25.982 19.092v-5.446h5.206V19.1z" opacity="1" data-original="#fdbbad"></path><path fill="#eca090" d="M26.22 13.646a4.644 4.644 0 0 0 4.646 4.519c.112 0 .217-.007.322-.014v-4.505z" opacity="1" data-original="#eca090"></path><path fill="#0e0f16" d="m35.031 6.215.098 3.581c.012.441-.158.868-.47 1.18l-1.64-3V6.215z" opacity="1" data-original="#0e0f16"></path><path fill="#fdbbad" d="M34.712 10.017v3.031a4.404 4.404 0 0 1-4.406 4.406 4.408 4.408 0 0 1-4.406-4.406v-3.031a4.408 4.408 0 0 1 7.525-3.114 4.406 4.406 0 0 1 1.287 3.114z" opacity="1" data-original="#fdbbad"></path><ellipse cx="30.094" cy="11.596" fill="#0e0f16" rx=".411" ry=".665" opacity="1" data-original="#0e0f16"></ellipse><ellipse cx="33.02" cy="11.596" fill="#0e0f16" rx=".411" ry=".665" opacity="1" data-original="#0e0f16"></ellipse><path fill="#ffffff" d="M29.814 13.961c0 .025-.007.048-.007.072a1.671 1.671 0 1 0 3.343 0c0-.024-.006-.047-.007-.072z" opacity="1" data-original="#ffffff"></path><path fill="#0e0f16" d="M24.616 11.923s-1.25-1.605-1.212-4.512c.04-3.079.88-3.596 3.47-4.45 0 0 .903-1.07 3.22-.952s3.683 1.682 5.803 1.711c0 0 .03 1.275-.706 1.452 0 0 .235.913 1.237.619 0 0 .114 4.542-8.994 1.806 0 0 .324 1.135-.913 1.754l.011 1.802a.598.598 0 0 1-.632.6l-.003-.877z" opacity="1" data-original="#0e0f16"></path><path fill="#fdbbad" d="M25.931 10.842a1.382 1.382 0 0 0 0 2.764z" opacity="1" data-original="#fdbbad"></path><path fill="#4d7cfe" d="m17.961 31.88 3.301-6.301a6.917 6.917 0 0 0-.025-6.47c-2.934 0-6.369 1.987-7.073 4.835l-3.52 8.559" opacity="1" data-original="#4d7cfe"></path><path fill="#234bba" d="M17.961 31.88c.949-2.108 2.011-4.156 3.065-6.21.557-.99.86-2.1.895-3.234a7.376 7.376 0 0 0-.684-3.326c.607.986.928 2.153.941 3.328.02 1.176-.305 2.355-.857 3.388-1.088 2.034-2.167 4.074-3.36 6.053z" opacity="1" data-original="#234bba"></path><path fill="#f8c51a" d="m28.296 48.954 3.684-16.746a1.183 1.183 0 0 0-.74-1.36l-9.575-3.6a1.183 1.183 0 0 0-1.452.537L11.949 42.81a1.183 1.183 0 0 0 .62 1.677l14.156 5.32a1.183 1.183 0 0 0 1.571-.853z" opacity="1" data-original="#f8c51a"></path><path fill="#ffffff" d="M30.226 32.588a.705.705 0 0 1-.902.41.698.698 0 0 1-.41-.903.698.698 0 0 1 .903-.409.705.705 0 0 1 .41.902zM22.586 29.717a.705.705 0 0 1-.902.41.698.698 0 0 1-.409-.903.698.698 0 0 1 .902-.409.705.705 0 0 1 .41.902z" opacity="1" data-original="#ffffff"></path><path fill="#0e0f16" d="M29.458 32.642a.32.32 0 0 1-.188-.413l.64-1.7a3.764 3.764 0 0 0-2.198-4.843 3.764 3.764 0 0 0-4.842 2.197l-.639 1.7a.32.32 0 1 1-.6-.225l.639-1.7c.853-2.272 3.396-3.426 5.668-2.572s3.425 3.397 2.572 5.668l-.64 1.7a.32.32 0 0 1-.412.188z" opacity="1" data-original="#0e0f16"></path><path fill="#f73731" d="m29.27 49.842 3.134-14.244a1.006 1.006 0 0 0-.629-1.158L23.63 31.38a1.006 1.006 0 0 0-1.236.457l-7.029 12.78a1.006 1.006 0 0 0 .528 1.427l12.041 4.525a1.006 1.006 0 0 0 1.337-.726z" opacity="1" data-original="#f73731"></path><path fill="#ffffff" d="M30.912 35.921a.6.6 0 0 1-.767.348.594.594 0 0 1-.348-.767.594.594 0 0 1 .767-.348.6.6 0 0 1 .348.767zM24.414 33.479a.6.6 0 0 1-.768.348.594.594 0 0 1-.348-.767.594.594 0 0 1 .768-.348.6.6 0 0 1 .348.767z" opacity="1" data-original="#ffffff"></path><path fill="#0e0f16" d="M30.259 35.967a.273.273 0 0 1-.16-.352l.544-1.446a3.202 3.202 0 0 0-1.869-4.119 3.202 3.202 0 0 0-4.119 1.869l-.544 1.446a.273.273 0 1 1-.51-.192l.543-1.446c.727-1.932 2.89-2.914 4.822-2.188s2.914 2.89 2.187 4.822l-.543 1.446a.273.273 0 0 1-.351.16z" opacity="1" data-original="#0e0f16"></path><path fill="#4d7cfe" d="M10.644 32.503a6.182 6.182 0 0 0 4.493 7.478l11.61 2.543 2.474-5.76-11.26-4.885" opacity="1" data-original="#4d7cfe"></path><path fill="#fdbbad" d="M32.508 41.802a2.599 2.599 0 0 1-3.517 1.676l-2.245-.956 2.476-5.76 2.166.083a.643.643 0 0 1-.025 1.285H30.27l1.19.8a2.599 2.599 0 0 1 1.048 2.872z" opacity="1" data-original="#fdbbad"></path></g></svg>