<svg xmlns="http://www.w3.org/2000/svg" version="1.1" xmlns:xlink="http://www.w3.org/1999/xlink" width="512" height="512" x="0" y="0" viewBox="0 0 32 32" style="enable-background:new 0 0 512 512" xml:space="preserve" class=""><g><g fill-rule="evenodd"><path fill="#ffcf38" d="M16 0a16 16 0 1 0 16 16A16 16 0 0 0 16 0zm0 20.57A4.57 4.57 0 1 1 20.57 16 4.57 4.57 0 0 1 16 20.57z" opacity="1" data-original="#ffcf38" class=""></path><g fill="#d8a400"><path d="M11.43 16a4.55 4.55 0 0 0 .36 1.77L1.34 22.4A15.71 15.71 0 0 1 0 16a15.89 15.89 0 0 1 1.37-6.47l10.45 4.63a4.53 4.53 0 0 0-.39 1.84zM32 16a15.91 15.91 0 0 1-1.37 6.48l-10.46-4.62a4.47 4.47 0 0 0 .4-1.86 4.4 4.4 0 0 0-.43-1.92L30.6 9.45A15.93 15.93 0 0 1 32 16z" fill="#d8a400" opacity="1" data-original="#d8a400"></path></g></g></g></svg>