<svg xmlns="http://www.w3.org/2000/svg" version="1.1" xmlns:xlink="http://www.w3.org/1999/xlink" width="512" height="512" x="0" y="0" viewBox="0 0 612 612" style="enable-background:new 0 0 512 512" xml:space="preserve" class=""><g><path d="M306 0C137.001 0 0 137.001 0 306s137.001 306 306 306 306-137.001 306-306S474.999 0 306 0zm21.39 25.795c-4.626 60.608-9.252 121.215-13.88 181.823a98.1 98.1 0 0 0-17.198.19l-17.904-181.47a279.308 279.308 0 0 1 48.982-.543zm-73.251 4.012 33.653 179.219a98.671 98.671 0 0 0-51.56 27.205L107.289 107.289a281.007 281.007 0 0 1 146.85-77.482zM232.31 306c0-40.698 32.992-73.69 73.69-73.69s73.69 32.992 73.69 73.69-32.992 73.69-73.69 73.69-73.69-32.992-73.69-73.69zm52.3 280.205c4.626-60.608 9.252-121.215 13.88-181.823a98.1 98.1 0 0 0 17.198-.19l17.904 181.47a279.308 279.308 0 0 1-48.982.543zm73.251-4.012-33.652-179.219a98.664 98.664 0 0 0 51.56-27.205l128.942 128.942a281.007 281.007 0 0 1-146.85 77.482z" fill="#000000" opacity="1" data-original="#000000" class=""></path><circle cx="306" cy="306" r="48.71" fill="#000000" opacity="1" data-original="#000000" class=""></circle></g></svg>