<svg xmlns="http://www.w3.org/2000/svg" version="1.1" xmlns:xlink="http://www.w3.org/1999/xlink" width="512" height="512" x="0" y="0" viewBox="0 0 512 512" style="enable-background:new 0 0 512 512" xml:space="preserve" class=""><g><path d="M256 0C114.616 0 0 114.616 0 256c0 141.386 114.615 256.001 256 256 141.385 0 256-114.615 256-256C512.001 114.615 397.386 0 256 0zm20.114 276.114c-11.108 11.108-29.118 11.108-40.227 0-11.108-11.108-11.108-29.118 0-40.227 11.108-11.108 29.118-11.108 40.227 0 11.108 11.108 11.108 29.118 0 40.227z" style="" fill="#c7cfe2" data-original="#c7cfe2" class=""></path><path d="M276.158 235.843c-4.927-4.927-11.222-7.54-17.66-8.097L278.218.973c123.682 10.62 222.191 109.13 232.81 232.811l-226.772 19.719c-.559-6.438-3.171-12.733-8.098-17.66zM235.887 276.114c-4.927-4.927-7.54-11.222-8.097-17.661L1.018 278.173c10.62 123.682 109.13 222.191 232.811 232.81l19.719-226.772c-6.439-.558-12.734-3.17-17.661-8.097z" style="" fill="#afb9d2" data-original="#afb9d2" class=""></path><path d="M256 189.63c-36.655 0-66.37 29.715-66.37 66.37s29.715 66.37 66.37 66.37 66.37-29.715 66.37-66.37-29.715-66.37-66.37-66.37zm20.114 86.484c-11.108 11.109-29.118 11.109-40.227 0-11.108-11.109-11.108-29.118 0-40.227 11.109-11.109 29.119-11.109 40.227 0 11.108 11.109 11.108 29.118 0 40.227z" style="" fill="#ffffff" data-original="#ffffff"></path><path d="M289.522 222.478c-18.513-18.514-48.529-18.514-67.043 0-18.514 18.515-18.514 48.529 0 67.043 18.514 18.515 48.53 18.515 67.043 0 18.514-18.514 18.514-48.528 0-67.043zm-13.409 53.636c-11.108 11.109-29.118 11.109-40.226 0s-11.108-29.118 0-40.227 29.118-11.109 40.226 0 11.108 29.118 0 40.227zM210.871 173 131.016 32.6A257.134 257.134 0 0 0 32.6 131.016L173 210.87c4.221 2.4 9.633 1.264 12.361-2.752a85.81 85.81 0 0 1 22.757-22.757c4.017-2.728 5.153-8.14 2.753-12.361zM338.976 301.116a9.407 9.407 0 0 0-12.456 2.9 84.564 84.564 0 0 1-10.181 12.322 84.697 84.697 0 0 1-12.323 10.182 9.41 9.41 0 0 0-2.9 12.456L380.984 479.4a257.136 257.136 0 0 0 98.416-98.417l-140.424-79.867z" style="" fill="#e4eaf8" data-original="#e4eaf8"></path></g></svg>