<svg xmlns="http://www.w3.org/2000/svg" version="1.1" xmlns:xlink="http://www.w3.org/1999/xlink" width="512" height="512" x="0" y="0" viewBox="0 0 512 512" style="enable-background:new 0 0 512 512" xml:space="preserve" class=""><g><path fill="#e63950" d="M472 512H52c-8.284 0-15-6.716-15-15V268.594c0-16.569 13.431-30 30-30h390c16.569 0 30 13.431 30 30V497c0 8.284-6.716 15-15 15z" opacity="1" data-original="#e63950"></path><path fill="#ae2538" d="M262 512h210c8.284 0 15-6.716 15-15V268.594c0-16.569-13.431-30-30-30H262z" opacity="1" data-original="#ae2538"></path><path fill="#edf5ff" d="m427 179-15 45-75 45H217l15-45 75-45z" opacity="1" data-original="#edf5ff"></path><path fill="#d5e8fe" d="M262 269h75l75-45 15-45H307l-45 27.001zM306.111 134.493h-.298l-84.207.789-27.694-61.09 114.9-34.498 86.257.164 25.642 59.836z" opacity="1" data-original="#d5e8fe"></path><path fill="#b5dbff" d="m262 134.904 43.813-.411h.298l114.6-34.799-25.642-59.836-86.257-.164L262 53.749z" opacity="1" data-original="#b5dbff" class=""></path><path fill="#351b33" d="M487 194v75H337l90-90h45c8.284 0 15 6.716 15 15z" opacity="1" data-original="#351b33"></path><path fill="#d5e8fe" d="M35.825 122.406c-8.085 2.396-12.578 10.479-10.182 18.565L37.192 179 95 195l63.864-16 31.769-9.582L191.832 108l-112.89 1.531z" opacity="1" data-original="#d5e8fe"></path><path fill="#edf5ff" d="M164.446 228.533 97 269H37v-90h150l-15 45-7.554 4.533z" opacity="1" data-original="#edf5ff"></path><path fill="#351b33" d="m463.912 86.794-43.2 12.9-111.899-60 129-39c8.592-2.646 16.476 2.624 18.9 9.899l17.1 57.601c2.4 7.798-2.101 16.199-9.901 18.6z" opacity="1" data-original="#351b33"></path><path fill="#edf5ff" d="M224.925 463.228A14.997 14.997 0 0 1 217 450V330c0-5.537 3.047-10.62 7.925-13.228s10.781-2.314 15.396.747l90 60c4.175 2.783 6.68 7.471 6.68 12.48s-2.505 9.697-6.68 12.48l-90 60a15.001 15.001 0 0 1-15.396.749z" opacity="1" data-original="#edf5ff"></path><path fill="#4b2746" d="m307 179-90 90H97l90-90zM305.813 134.493l-114.901 34.501c-3.095-1.66-114.996-61.662-111.901-60l114.901-34.801z" opacity="1" data-original="#4b2746" class=""></path><path fill="#351b33" d="m262 147.648 43.813-13.155L262 110.883zM262 224l45-45h-45z" opacity="1" data-original="#351b33"></path><path fill="#d5e8fe" d="m262 448.028 68.32-45.547c4.175-2.783 6.68-7.471 6.68-12.48s-2.505-9.697-6.68-12.48L262 331.972z" opacity="1" data-original="#d5e8fe"></path></g></svg>