<svg xmlns="http://www.w3.org/2000/svg" version="1.1" xmlns:xlink="http://www.w3.org/1999/xlink" xmlns:svgjs="http://svgjs.dev/svgjs" width="1000" height="323" viewBox="0 0 1000 323"><g transform="matrix(1,0,0,1,-0.6059224939181718,0.3096394720421358)"><svg viewBox="0 0 396 128" data-background-color="#ffffff" preserveAspectRatio="xMidYMid meet" height="323" width="1000" xmlns="http://www.w3.org/2000/svg" xmlns:xlink="http://www.w3.org/1999/xlink"><g id="tight-bounds" transform="matrix(1,0,0,1,0.23994530759159716,-0.12270542545323337)"><svg viewBox="0 0 395.52 128.24530146608973" height="128.24530146608973" width="395.52"><g><svg viewBox="0 0 688.5686763689432 223.26480956978534" height="128.24530146608973" width="395.52"><g transform="matrix(1,0,0,1,0,37.73261531120846)"><svg viewBox="0 0 395.52 147.79957894736842" height="147.79957894736842" width="395.52"><g id="textblocktransform"><svg viewBox="0 0 395.52 147.79957894736842" height="147.79957894736842" width="395.52" id="textblock"><g><svg viewBox="0 0 395.52 147.79957894736842" height="147.79957894736842" width="395.52"><g transform="matrix(1,0,0,1,0,0)"><svg width="395.52" viewBox="2.5 -35 95 35.5" height="147.79957894736842" data-palette-color="#1ebbd7"><g class="wordmark-text-0" data-fill-palette-color="primary" id="text-0"><path d="M2.5 0L2.5-0.75 5.5-1.5 5.5-33.5 2.5-34.25 2.5-35 15.25-35Q24.2-35 28.98-30.4 33.75-25.8 33.75-17.5L33.75-17.5Q33.75-9.2 28.98-4.6 24.2 0 15.25 0L15.25 0 2.5 0ZM13.75-1.25L15.25-1.25Q19.9-1.25 22.45-5.03 25-8.8 25-17.5L25-17.5Q25-26.2 22.45-29.98 19.9-33.75 15.25-33.75L15.25-33.75 13.75-33.75 13.75-1.25ZM49.75 0.5L37.25-23.5 34.75-24.25 34.75-25 41-25Q43.6-25 45.12-23.93 46.65-22.85 47.75-20.75L47.75-20.75 53.7-9.2 59.25-22.75 55.5-24.25 55.5-25 64.75-25 64.75-24.25 60.75-22.75 51.25 0.5 49.75 0.5ZM66.25 0L66.25-0.75 69.25-1.5 69.25-33.5 66.25-34.25 66.25-35 79-35Q87.95-35 92.72-30.4 97.5-25.8 97.5-17.5L97.5-17.5Q97.5-9.2 92.72-4.6 87.95 0 79 0L79 0 66.25 0ZM77.5-1.25L79-1.25Q83.65-1.25 86.2-5.03 88.75-8.8 88.75-17.5L88.75-17.5Q88.75-26.2 86.2-29.98 83.65-33.75 79-33.75L79-33.75 77.5-33.75 77.5-1.25Z" fill="#1ebbd7" data-fill-palette-color="primary"></path></g></svg></g></svg></g></svg></g></svg></g><g transform="matrix(1,0,0,1,465.30386679915784,0)"><svg viewBox="0 0 223.26480956978534 223.26480956978534" height="223.26480956978534" width="223.26480956978534"><g><svg></svg></g><g id="icon-0"><svg viewBox="0 0 223.26480956978534 223.26480956978534" height="223.26480956978534" width="223.26480956978534"><g><path d="M0 111.632c0-61.653 49.98-111.632 111.632-111.632 61.653 0 111.632 49.98 111.633 111.632 0 61.653-49.98 111.632-111.633 111.633-61.653 0-111.632-49.98-111.632-111.633zM111.632 209.936c54.292 0 98.304-44.012 98.304-98.304 0-54.292-44.012-98.304-98.304-98.303-54.292 0-98.304 44.012-98.303 98.303 0 54.292 44.012 98.304 98.303 98.304z" data-fill-palette-color="accent" fill="#1ebbd7" stroke="transparent"></path></g><g transform="matrix(1,0,0,1,71.33517399744613,50.763155248206715)"><svg viewBox="0 0 80.59446157489306 121.73849907337191" height="121.73849907337191" width="80.59446157489306"><g><svg xmlns="http://www.w3.org/2000/svg" xmlns:xlink="http://www.w3.org/1999/xlink" version="1.1" x="0" y="0" viewBox="24.761855407245655 5 59.58264309935908 90" enable-background="new 0 0 100 100" xml:space="preserve" width="80.59446157489306" height="121.73849907337191" class="icon-z$-0" data-fill-palette-color="accent" id="z$-0"><g fill="#1ebbd7" data-fill-palette-color="accent"><path d="M73.76 35.603C86.875 48 91.5 66.25 65.633 82.379c3.64-4.928 5.654-9.794 6.096-14.669 0.951-10.516-5.606-19.072-12.835-26.752C48.298 29.7 47.51 18.84 56.413 6.782 54.578 22.641 64.6 26.944 73.76 35.603zM45.288 93.716c6.184-13.053 7.276-20.302-8.197-34.939-4.204-3.977-7.451-8.029-9.71-12.086-2.881 6.435-5.164 20.081 3.244 27.935C36.312 79.938 44.125 83.125 45.288 93.716zM56.709 43.014C48.183 33.954 41.999 21.253 54 5 21.497 17.692 19.625 38.125 39.151 56.597 55.603 72.158 54.75 80.75 48 95 79.875 71.5 68.709 55.764 56.709 43.014z" fill="#1ebbd7" data-fill-palette-color="accent"></path></g></svg></g></svg></g></svg></g></svg></g></svg></g><defs></defs></svg><rect width="395.52" height="128.24530146608973" fill="none" stroke="none" visibility="hidden"></rect></g></svg></g></svg>