<svg xmlns="http://www.w3.org/2000/svg" version="1.1" xmlns:xlink="http://www.w3.org/1999/xlink" xmlns:svgjs="http://svgjs.dev/svgjs" width="1000" height="1000" viewBox="0 0 1000 1000"><rect width="1000" height="1000" fill="#000000"></rect><g transform="matrix(0.42813455657492355,0,0,0.42813455657492355,286.6002582378442,150.28340080971657)"><svg viewBox="0 0 151 247" data-background-color="#ffffff" preserveAspectRatio="xMidYMid meet" height="1635" width="1000" xmlns="http://www.w3.org/2000/svg" xmlns:xlink="http://www.w3.org/1999/xlink"><g id="tight-bounds" transform="matrix(1,0,0,1,-0.23543536435735746,-0.09999999999999432)"><svg viewBox="0 0 151.47087072871471 247.2" height="247.2" width="151.47087072871471"><g><svg viewBox="0 0 395.52 645.487436162635" height="247.2" width="151.47087072871471"><g transform="matrix(1,0,0,1,0,398.9371312201372)"><svg viewBox="0 0 395.52 246.55030494249786" height="246.55030494249786" width="395.52"><g id="textblocktransform"><svg viewBox="0 0 395.52 246.55030494249786" height="246.55030494249786" width="395.52" id="textblock"><g><svg viewBox="0 0 395.52 246.55030494249786" height="246.55030494249786" width="395.52"><g transform="matrix(1,0,0,1,0,0)"><svg width="395.52" viewBox="1.9 -42.95 68.90108695652175 42.95" height="246.55030494249786" data-palette-color="#3c2c32"><path d="M1.9 0L1.9-42.95 13.75-42.95Q18.35-42.95 20.65-40.4 22.95-37.85 23-32.85L23-32.85 23.1-12.75Q23.15-6.4 20.9-3.2 18.65 0 13.45 0L13.45 0 1.9 0ZM10.55-7.6L12.05-7.6Q14.4-7.6 14.4-9.9L14.4-9.9 14.4-32.05Q14.4-33.5 14.18-34.23 13.95-34.95 13.35-35.2 12.75-35.45 11.5-35.45L11.5-35.45 10.55-35.45 10.55-7.6ZM41.2 0L31.05 0 25.2-36.6 33.95-36.6 35.75-18.1 36.05-12.15 36.4-18.15 38.4-36.6 47.15-36.6 41.2 0ZM49.6 0L49.6-42.95 61.45-42.95Q66.05-42.95 68.35-40.4 70.65-37.85 70.7-32.85L70.7-32.85 70.8-12.75Q70.85-6.4 68.6-3.2 66.35 0 61.15 0L61.15 0 49.6 0ZM58.25-7.6L59.75-7.6Q62.1-7.6 62.1-9.9L62.1-9.9 62.1-32.05Q62.1-33.5 61.87-34.23 61.65-34.95 61.05-35.2 60.45-35.45 59.2-35.45L59.2-35.45 58.25-35.45 58.25-7.6Z" opacity="1" transform="matrix(1,0,0,1,0,0)" fill="#ffffff" class="wordmark-text-0" data-fill-palette-color="primary" id="text-0"></path></svg></g></svg></g></svg></g></svg></g><g transform="matrix(1,0,0,1,76.97253212922159,0)"><svg viewBox="0 0 241.5749357415568 340.7325214305321" height="340.7325214305321" width="241.5749357415568"><g><svg xmlns="http://www.w3.org/2000/svg" xmlns:xlink="http://www.w3.org/1999/xlink" version="1.1" x="8" y="0" viewBox="24.761855407245655 5 59.58264309935908 90" enable-background="new 0 0 100 100" xml:space="preserve" width="225.5749357415568" height="340.7325214305321" class="icon-icon-0" data-fill-palette-color="accent" id="icon-0"><g fill="#fbb168" data-fill-palette-color="accent"><path d="M73.76 35.603C86.875 48 91.5 66.25 65.633 82.379c3.64-4.928 5.654-9.794 6.096-14.669 0.951-10.516-5.606-19.072-12.835-26.752C48.298 29.7 47.51 18.84 56.413 6.782 54.578 22.641 64.6 26.944 73.76 35.603zM45.288 93.716c6.184-13.053 7.276-20.302-8.197-34.939-4.204-3.977-7.451-8.029-9.71-12.086-2.881 6.435-5.164 20.081 3.244 27.935C36.312 79.938 44.125 83.125 45.288 93.716zM56.709 43.014C48.183 33.954 41.999 21.253 54 5 21.497 17.692 19.625 38.125 39.151 56.597 55.603 72.158 54.75 80.75 48 95 79.875 71.5 68.709 55.764 56.709 43.014z" fill="#ffffff" data-fill-palette-color="accent"></path></g></svg></g></svg></g><g></g></svg></g><defs></defs></svg><rect width="151.47087072871471" height="247.2" fill="none" stroke="none" visibility="hidden"></rect></g></svg></g></svg>