<svg xmlns="http://www.w3.org/2000/svg" version="1.1" xmlns:xlink="http://www.w3.org/1999/xlink" width="512" height="512" x="0" y="0" viewBox="0 0 512 512" style="enable-background:new 0 0 512 512" xml:space="preserve" fill-rule="evenodd" class=""><g><linearGradient id="a" x1="93.06" x2="418.95" y1="256.01" y2="256.01" gradientUnits="userSpaceOnUse"><stop offset="0" stop-color="#f071ab"></stop><stop offset="1" stop-color="#22abe2"></stop></linearGradient><path fill="url(#a)" d="M428.78 512H83.23C76.48 512 71 506.52 71 499.77V244.84c0-6.75 5.48-12.23 12.23-12.23h345.55c6.74 0 12.22 5.48 12.22 12.23v254.94c0 6.74-5.48 12.22-12.22 12.22zm-279.1-291.56v-66.58c0-28.37 11.19-55.02 31.25-75.08 20.05-20.05 46.7-31.24 75.07-31.24s55.02 11.19 75.08 31.24c20.05 20.06 31.24 46.71 31.24 75.08v66.58h-22.91v-66.58c0-45.99-37.42-83.4-83.41-83.4s-83.41 37.41-83.41 83.4v66.58zm-43.99 0v-70.12C105.69 67.43 173.11 0 256 0s150.32 67.43 150.32 150.32v70.12h-24.34v-70.12c0-69.46-56.52-125.98-125.98-125.98S130.02 80.86 130.02 150.32v70.12zm178.28 215.98c0 .01-.01.01-.02 0h-55.9c-1.77 0-3.45-.76-4.61-2.1a6.088 6.088 0 0 1-1.41-4.86l5.7-38.95c-11.18-8.69-17.74-21.99-17.74-36.31 0-25.37 20.64-46.01 46.01-46.01s46.01 20.64 46.01 46.01c0 14.31-6.56 27.61-17.75 36.31l5.64 38.45c.1.44.16.9.16 1.38a6.092 6.092 0 0 1-6.09 6.08zm-48.88-12.16h41.82l-5.23-35.66c-.34-2.35.71-4.69 2.71-5.99 9.68-6.28 15.45-16.9 15.45-28.41 0-18.66-15.18-33.84-33.84-33.84s-33.84 15.18-33.84 33.84c0 11.52 5.77 22.14 15.44 28.41 2 1.3 3.06 3.64 2.71 5.99z" opacity="1" data-original="url(#a)"></path></g></svg>