<svg xmlns="http://www.w3.org/2000/svg" version="1.1" xmlns:xlink="http://www.w3.org/1999/xlink" width="512" height="512" x="0" y="0" viewBox="0 0 64 64" style="enable-background:new 0 0 512 512" xml:space="preserve" class=""><g><linearGradient id="a" x1="14.01" x2="49.99" y1="31.952" y2="31.952" gradientUnits="userSpaceOnUse"><stop stop-opacity="1" stop-color="#ffa68d" offset="0"></stop><stop stop-opacity="1" stop-color="#d13771" offset="1"></stop></linearGradient><path fill="url(#a)" d="M32 24.01a18.012 18.012 0 0 0-17.99 18c.988 23.866 34.996 23.86 35.98 0a18.012 18.012 0 0 0-17.99-18zm3.51 18.17v5.52a3.51 3.51 0 0 1-7.02 0v-5.52a5.347 5.347 0 1 1 7.02 0zm-2 1.1v4.42a1.51 1.51 0 0 1-3.02 0v-4.42a5.345 5.345 0 0 0 3.02 0zM32 41.5a3.35 3.35 0 0 1 0-6.7 3.35 3.35 0 0 1 0 6.7zM16.94 28.88v-9.82a15.06 15.06 0 0 1 30.12 0v9.82a19.893 19.893 0 0 0-7.75-5.48v-3.76a7.31 7.31 0 1 0-14.62 0v3.76a19.841 19.841 0 0 0-5.75 3.48 20.97 20.97 0 0 0-2 2z" opacity="1" data-original="url(#a)" class=""></path></g></svg>