<svg xmlns="http://www.w3.org/2000/svg" version="1.1" xmlns:xlink="http://www.w3.org/1999/xlink" width="512" height="512" x="0" y="0" viewBox="0 0 512 512.004" style="enable-background:new 0 0 512 512" xml:space="preserve" class=""><g><path fill="#8f95e6" d="M512.004 256c0 141.387-114.617 256-256 256-141.387 0-256-114.613-256-256s114.613-256 256-256c141.383 0 256 114.613 256 256zm0 0" opacity="1" data-original="#8f95e6" class=""></path><path fill="#6770e6" d="M256.004 492C117.969 492 5.469 382.746.214 246c-.128 3.32-.21 6.648-.21 10 0 141.383 114.613 256 256 256 141.383 0 256-114.617 256-256 0-3.352-.086-6.68-.215-10-5.254 136.746-117.754 246-255.785 246zm0 0" opacity="1" data-original="#6770e6"></path><path fill="#333399" d="M323.426 102.586c-2.91-11.25-15.328-27.2-62.375-27.2-72.688 0-83.04 10.766-102.383-7.823-16.32-15.684-25.906 59.8-4.145 83.773-9.183 33.953-1.836 67.96-1.836 67.96H357.2c-.004 0 17.16-79.437-33.773-116.71zm0 0" opacity="1" data-original="#333399"></path><path fill="#5861c7" d="M158.664 85.715c19.348 18.59 29.695 7.824 102.383 7.824 47.05 0 59.469 15.945 62.375 27.2 27.09 19.82 34.918 51.566 36.308 76.948 1.368-26.257-2.18-70.128-36.308-95.097-2.906-11.254-15.324-27.2-62.375-27.2-72.688 0-83.035 10.762-102.383-7.828-10.726-10.308-18.539 18.766-16.46 46.72 1.507-20.669 8.093-36.61 16.46-28.567zm0 0" opacity="1" data-original="#5861c7"></path><path fill="#ffe4d1" d="M173.336 222.867s-8.816-16.148-26.45-16.148c-17.632 0-30.124 77.523 26.45 64.601zM336.543 222.867s8.816-16.148 26.45-16.148c17.636 0 30.124 77.523-26.45 64.601zm0 0" opacity="1" data-original="#ffe4d1"></path><path fill="#ffefe4" d="M254.941 118.984c-135.093 0-109.265 221.563 0 221.563 109.262 0 135.094-221.563 0-221.563zm0 0" opacity="1" data-original="#ffefe4" class=""></path><path fill="#333399" d="M254.941 106.926s-91.89-12.965-91.89 104.937c0 0 11.57-48.73 38.113-62.02 12.363-6.19 16.89 9.493 53.777 9.493 36.883 0 41.414-15.684 53.774-9.492 26.547 13.289 38.113 62.02 38.113 62.02 0-117.903-91.887-104.938-91.887-104.938zm0 0" opacity="1" data-original="#333399"></path><path fill="#5861c7" d="M440.828 433.121c-6.566-16.09-19.906-28.988-37.137-34.652l-83.015-27.278a19.23 19.23 0 0 1-13.227-18.097l-.297-33.524c-13.875 12.493-31.148 20.235-51.347 20.414-20.196.176-37.602-7.261-51.7-19.504l.286 32.348a19.232 19.232 0 0 1-13.235 18.442l-82.984 27.214c-17.192 5.641-30.52 18.48-37.113 34.516 46.601 48.68 112.23 79 184.945 79 72.648 0 138.226-30.27 184.824-78.879zm0 0" opacity="1" data-original="#5861c7"></path><path fill="#4e56b0" d="M264.95 511.828c1.472-.05 2.945-.098 4.41-.172.867-.043 1.73-.113 2.593-.164 1.344-.082 2.688-.156 4.027-.262.907-.07 1.805-.164 2.711-.242 1.29-.113 2.579-.218 3.864-.351.925-.094 1.847-.211 2.77-.317 1.253-.14 2.503-.277 3.75-.437.937-.121 1.87-.262 2.8-.395 1.227-.172 2.453-.34 3.676-.527.933-.145 1.86-.309 2.789-.461 1.215-.203 2.43-.398 3.637-.621.925-.168 1.843-.352 2.77-.527 1.202-.235 2.401-.461 3.597-.711.918-.188 1.828-.395 2.742-.594 1.191-.262 2.387-.524 3.574-.8.902-.212 1.8-.438 2.7-.657 1.187-.293 2.374-.586 3.562-.895.887-.234 1.77-.48 2.652-.718 1.184-.325 2.367-.649 3.547-.989.867-.25 1.73-.515 2.598-.773 1.183-.356 2.367-.711 3.543-1.082.847-.27 1.691-.547 2.535-.824 1.183-.387 2.363-.778 3.539-1.184.828-.285 1.648-.578 2.473-.871 1.183-.418 2.363-.848 3.539-1.281.804-.301 1.609-.61 2.414-.918 1.175-.453 2.351-.91 3.523-1.38.785-.316 1.57-.64 2.352-.96 1.18-.488 2.355-.985 3.527-1.488.762-.325 1.516-.657 2.27-.993a220.996 220.996 0 0 0 5.726-2.617 227.717 227.717 0 0 0 3.547-1.707c.703-.344 1.402-.691 2.102-1.043a276.209 276.209 0 0 0 3.554-1.82c.676-.356 1.352-.711 2.024-1.07a243.179 243.179 0 0 0 9.05-5.074c.622-.364 1.243-.727 1.864-1.098a256.09 256.09 0 0 0 8.91-5.594c.555-.363 1.11-.723 1.66-1.09a253.192 253.192 0 0 0 3.598-2.45c.52-.362 1.043-.718 1.558-1.081a243.49 243.49 0 0 0 3.625-2.602c.48-.347.961-.695 1.438-1.047 1.23-.91 2.45-1.836 3.664-2.77.433-.331.871-.663 1.305-1a271.676 271.676 0 0 0 3.703-2.94c.39-.317.789-.63 1.18-.95a239.69 239.69 0 0 0 3.765-3.148c.336-.285.676-.567 1.008-.852a290.62 290.62 0 0 0 3.851-3.383c.278-.25.559-.492.832-.742a248.9 248.9 0 0 0 3.95-3.64c.21-.2.425-.395.636-.59a263.858 263.858 0 0 0 4.114-3.989c.117-.12.242-.234.363-.351a273.652 273.652 0 0 0 4.348-4.43l.02-.02a60.66 60.66 0 0 0-7.169-12.812C387.625 464.7 325.004 492 256.004 492c-69.05 0-131.711-27.34-177.75-71.781A60.715 60.715 0 0 0 71.059 433c.011.016.03.031.043.043a270.194 270.194 0 0 0 4.32 4.406c.164.164.336.324.5.489a264.212 264.212 0 0 0 3.973 3.855c.27.254.542.504.812.754 1.246 1.172 2.5 2.336 3.77 3.484.34.309.683.606 1.027.914a218.92 218.92 0 0 0 3.652 3.211c.399.348.809.684 1.211 1.024a236.278 236.278 0 0 0 3.567 2.984c.453.375.918.738 1.37 1.106 1.165.937 2.329 1.87 3.508 2.789.497.39 1 .765 1.5 1.152 1.149.883 2.305 1.762 3.473 2.625.535.398 1.082.789 1.621 1.184 1.14.832 2.285 1.656 3.438 2.468.578.407 1.164.805 1.746 1.207 1.129.785 2.27 1.563 3.414 2.328.61.407 1.223.805 1.836 1.207 1.129.743 2.262 1.477 3.402 2.204.645.406 1.293.808 1.942 1.21 1.125.7 2.253 1.391 3.386 2.07.676.403 1.356.802 2.032 1.2 1.12.66 2.253 1.313 3.386 1.957.7.399 1.399.785 2.102 1.176 1.129.625 2.262 1.246 3.402 1.851.719.387 1.445.766 2.168 1.145a349.35 349.35 0 0 0 3.406 1.75c.746.375 1.5.75 2.254 1.117 1.13.555 2.266 1.106 3.403 1.64.773.368 1.547.731 2.324 1.087a266.8 266.8 0 0 0 5.8 2.586c1.133.488 2.27.964 3.415 1.437.816.34 1.64.676 2.465 1.008 1.132.453 2.27.898 3.41 1.336.84.324 1.68.644 2.527.96 1.14.423 2.285.837 3.43 1.247.855.305 1.715.61 2.574.906 1.144.395 2.293.774 3.445 1.153.875.285 1.75.574 2.63.851 1.148.363 2.3.711 3.452 1.059.895.27 1.785.539 2.688.8 1.152.332 2.312.649 3.469.97.91.245 1.812.5 2.722.737 1.164.301 2.332.59 3.5.88.918.226 1.836.456 2.758.671 1.168.274 2.344.532 3.52.79.933.202 1.863.413 2.8.609 1.176.242 2.36.468 3.54.699.94.18 1.882.367 2.828.539 1.187.219 2.382.41 3.578.61.949.16 1.894.324 2.847.472 1.207.188 2.418.352 3.63.523.948.133 1.894.278 2.847.399 1.226.156 2.465.293 3.703.433.941.11 1.879.227 2.824.325 1.266.129 2.54.234 3.813.347.918.082 1.836.172 2.761.246 1.332.106 2.668.176 4.008.262.867.055 1.739.121 2.61.164 1.488.078 2.984.125 4.476.176.73.023 1.453.063 2.184.082a254.78 254.78 0 0 0 13.402.004c.75-.023 1.496-.063 2.246-.09zm0 0" opacity="1" data-original="#4e56b0"></path><path fill="#ffe4d1" d="M252.953 443.832c42.567 0 78.875-26.719 93.121-64.293l-25.402-8.348a19.225 19.225 0 0 1-13.223-18.097l-.297-33.524c-13.879 12.492-31.148 20.235-51.347 20.414-20.2.176-37.606-7.261-51.7-19.504l.286 32.348a19.232 19.232 0 0 1-13.235 18.442l-30.625 10.042c14.703 36.637 50.528 62.52 92.422 62.52zm0 0" opacity="1" data-original="#ffe4d1"></path><path fill="#9fa5ff" d="M256.004 20c138.031 0 250.531 109.254 255.785 246 .129-3.32.215-6.648.215-10 0-141.383-114.617-256-256-256-141.387 0-256 114.617-256 256 0 3.352.082 6.68.21 10C5.47 129.254 117.97 20 256.005 20zm0 0" opacity="1" data-original="#9fa5ff"></path></g></svg>