<svg xmlns="http://www.w3.org/2000/svg" version="1.1" xmlns:xlink="http://www.w3.org/1999/xlink" width="512" height="512" x="0" y="0" viewBox="0 0 512 512" style="enable-background:new 0 0 512 512" xml:space="preserve" class=""><g><linearGradient id="a" x1="256.003" x2="256.003" y1="90.667" y2="421.333" gradientUnits="userSpaceOnUse"><stop offset="0" stop-color="#e100ff"></stop><stop offset="1" stop-color="#7f00ff"></stop></linearGradient><g fill="url(#a)" fill-rule="evenodd" clip-rule="evenodd"><path d="M202.362 282.686c.264-.013.529-.019.793-.019h105.686c.264 0 .529.006.793.019 37.014 1.837 69.822 24.363 84.845 58.21 10.79 21.587 4.774 42.959-9.003 57.677-13.342 14.25-34.011 22.76-55.494 22.76H182.014c-21.474 0-42.138-8.512-55.477-22.76-13.776-14.714-19.799-36.083-9.023-57.673 15.024-33.851 47.834-56.375 84.848-58.214zm1.212 31.981a66.154 66.154 0 0 0-56.933 39.49c-.124.284-.256.563-.396.838-4.012 7.874-2.514 15.121 3.652 21.707 6.693 7.149 18.584 12.631 32.117 12.631h147.968c13.547 0 25.442-5.484 32.132-12.631 6.163-6.581 7.659-13.822 3.642-21.698a17.243 17.243 0 0 1-.401-.847 66.153 66.153 0 0 0-56.933-39.49zM256 122.667c-26.509 0-48 21.49-48 48 0 26.509 21.491 48 48 48s48-21.491 48-48a48 48 0 0 0-48-48zm-80 48c0-44.183 35.817-80 80-80a80.005 80.005 0 0 1 56.57 23.431A80.007 80.007 0 0 1 336 170.667c0 44.183-35.816 80-80 80-44.183 0-80-35.817-80-80z" fill="" opacity="1"></path></g></g></svg>