<svg xmlns="http://www.w3.org/2000/svg" version="1.1" xmlns:xlink="http://www.w3.org/1999/xlink" width="512" height="512" x="0" y="0" viewBox="0 0 30 30" style="enable-background:new 0 0 512 512" xml:space="preserve" class=""><g><linearGradient id="a"><stop offset="0" stop-color="#fd4685"></stop><stop offset="1" stop-color="#ff9d8c"></stop></linearGradient><linearGradient xlink:href="#a" id="b" x1="14.853" x2="14.853" y1="17.778" y2="23" gradientUnits="userSpaceOnUse"></linearGradient><linearGradient xlink:href="#a" id="c" x1="14.854" x2="14.854" y1="6.644" y2="15" gradientUnits="userSpaceOnUse"></linearGradient><path fill="url(#b)" d="M10.004 23h9.7c1.936 0 2.742-2.478 1.175-3.618l-.849-.617A4 4 0 0 0 17.678 18h-5.649a4 4 0 0 0-2.353.765l-.849.617C7.261 20.523 8.067 23 10.004 23z" opacity="1" data-original="url(#b)"></path><path fill="url(#c)" d="M18.854 11a4 4 0 1 1-8 0 4 4 0 0 1 8 0z" opacity="1" data-original="url(#c)"></path></g></svg>